<svg xmlns="http://www.w3.org/2000/svg" viewBox="0 0 500 120">
  <g fill="#111111">

    <!-- b -->
    <path d="
      M20 10
      H50
      V45
      C58 35 72 30 86 30
      C110 30 125 47 125 75
      C125 102 108 110 84 110
      C68 110 56 104 50 95
      V110
      H20
      Z
      M50 56
      C56 63 63 67 74 67
      C87 67 95 75 95 89
      C95 101 88 107 75 107
      C63 107 56 100 50 92
      Z"></path>

    <!-- i -->
    <path d="
      M145 35
      H175
      V110
      H145
      Z
      M145 10
      H175
      V28
      H145
      Z"></path>

    <!-- k -->
    <path d="
      M195 10
      H225
      V66
      L268 35
      H306
      L257 70
      L312 110
      H272
      L225 76
      V110
      H195
      Z"></path>

    <!-- k -->
    <path d="
      M325 10
      H355
      V66
      L398 35
      H436
      L387 70
      L442 110
      H402
      L355 76
      V110
      H325
      Z"></path>

    <!-- i -->
    <path d="
      M460 35
      H490
      V110
      H460
      Z
      M460 10
      H490
      V28
      H460
      Z"></path>

  </g>
</svg>